<mxfile host="app.diagrams.net" modified="2021-11-02T02:04:24.915Z" agent="5.0 (Macintosh; Intel Mac OS X 10_15_7) AppleWebKit/537.36 (KHTML, like Gecko) Chrome/95.0.4638.54 Safari/537.36" etag="OrqEg9IvY-NoGCIRTonM" version="15.6.5" type="github">
  <diagram id="LM5EnsLcRHTkCDSXhKK_" name="第 1 页">
    <mxGraphModel dx="1542" dy="1129" grid="1" gridSize="10" guides="1" tooltips="1" connect="1" arrows="1" fold="1" page="1" pageScale="1" pageWidth="4681" pageHeight="3300" math="0" shadow="0">
      <root>
        <mxCell id="0" />
        <mxCell id="1" parent="0" />
        <mxCell id="F_iJesHC6Tssq89JvIhv-3" value="" style="edgeStyle=orthogonalEdgeStyle;rounded=0;orthogonalLoop=1;jettySize=auto;html=1;fontColor=default;strokeColor=default;labelBackgroundColor=default;" edge="1" parent="1" source="F_iJesHC6Tssq89JvIhv-1" target="F_iJesHC6Tssq89JvIhv-2">
          <mxGeometry relative="1" as="geometry" />
        </mxCell>
        <mxCell id="F_iJesHC6Tssq89JvIhv-4" value="跳转" style="edgeLabel;html=1;align=center;verticalAlign=middle;resizable=0;points=[];fontColor=default;" vertex="1" connectable="0" parent="F_iJesHC6Tssq89JvIhv-3">
          <mxGeometry x="-0.175" y="1" relative="1" as="geometry">
            <mxPoint as="offset" />
          </mxGeometry>
        </mxCell>
        <mxCell id="F_iJesHC6Tssq89JvIhv-1" value="https://web-example.com" style="rounded=1;whiteSpace=wrap;html=1;fillColor=#ffe6cc;strokeColor=#d79b00;fontColor=default;" vertex="1" parent="1">
          <mxGeometry x="570" y="170" width="230" height="40" as="geometry" />
        </mxCell>
        <mxCell id="F_iJesHC6Tssq89JvIhv-6" value="" style="edgeStyle=orthogonalEdgeStyle;rounded=0;orthogonalLoop=1;jettySize=auto;html=1;labelBackgroundColor=default;fontColor=default;strokeColor=default;" edge="1" parent="1" source="F_iJesHC6Tssq89JvIhv-2" target="F_iJesHC6Tssq89JvIhv-5">
          <mxGeometry relative="1" as="geometry" />
        </mxCell>
        <mxCell id="F_iJesHC6Tssq89JvIhv-2" value="/#/page1" style="rounded=0;whiteSpace=wrap;html=1;strokeColor=#d79b00;fillColor=#ffe6cc;fontColor=default;" vertex="1" parent="1">
          <mxGeometry x="615" y="260" width="140" height="40" as="geometry" />
        </mxCell>
        <mxCell id="F_iJesHC6Tssq89JvIhv-8" value="" style="edgeStyle=orthogonalEdgeStyle;rounded=0;orthogonalLoop=1;jettySize=auto;html=1;labelBackgroundColor=default;fontColor=default;strokeColor=#d79b00;fillColor=#ffe6cc;" edge="1" parent="1" source="F_iJesHC6Tssq89JvIhv-5" target="F_iJesHC6Tssq89JvIhv-7">
          <mxGeometry relative="1" as="geometry" />
        </mxCell>
        <mxCell id="F_iJesHC6Tssq89JvIhv-11" value="href=xxxx#/page1&lt;br&gt;hash改变" style="edgeLabel;html=1;align=center;verticalAlign=middle;resizable=0;points=[];fontColor=default;" vertex="1" connectable="0" parent="F_iJesHC6Tssq89JvIhv-8">
          <mxGeometry x="-0.3429" y="2" relative="1" as="geometry">
            <mxPoint as="offset" />
          </mxGeometry>
        </mxCell>
        <mxCell id="F_iJesHC6Tssq89JvIhv-9" style="edgeStyle=orthogonalEdgeStyle;rounded=0;orthogonalLoop=1;jettySize=auto;html=1;exitX=0;exitY=0.5;exitDx=0;exitDy=0;entryX=0;entryY=0.5;entryDx=0;entryDy=0;labelBackgroundColor=default;fontColor=default;strokeColor=#d79b00;fillColor=#ffe6cc;" edge="1" parent="1" source="F_iJesHC6Tssq89JvIhv-5" target="F_iJesHC6Tssq89JvIhv-7">
          <mxGeometry relative="1" as="geometry">
            <Array as="points">
              <mxPoint x="550" y="380" />
              <mxPoint x="550" y="510" />
            </Array>
          </mxGeometry>
        </mxCell>
        <mxCell id="F_iJesHC6Tssq89JvIhv-10" value="浏览器的前进、后退按钮" style="edgeLabel;html=1;align=center;verticalAlign=middle;resizable=0;points=[];fontColor=default;" vertex="1" connectable="0" parent="F_iJesHC6Tssq89JvIhv-9">
          <mxGeometry x="0.069" y="-1" relative="1" as="geometry">
            <mxPoint as="offset" />
          </mxGeometry>
        </mxCell>
        <mxCell id="F_iJesHC6Tssq89JvIhv-13" style="edgeStyle=orthogonalEdgeStyle;rounded=0;orthogonalLoop=1;jettySize=auto;html=1;exitX=1;exitY=0.5;exitDx=0;exitDy=0;entryX=0.5;entryY=0;entryDx=0;entryDy=0;labelBackgroundColor=default;fontColor=default;strokeColor=default;" edge="1" parent="1" source="F_iJesHC6Tssq89JvIhv-5" target="F_iJesHC6Tssq89JvIhv-12">
          <mxGeometry relative="1" as="geometry" />
        </mxCell>
        <mxCell id="F_iJesHC6Tssq89JvIhv-14" value="刷新页面或者第一次进入" style="edgeLabel;html=1;align=center;verticalAlign=middle;resizable=0;points=[];fontColor=default;" vertex="1" connectable="0" parent="F_iJesHC6Tssq89JvIhv-13">
          <mxGeometry x="-0.0122" relative="1" as="geometry">
            <mxPoint as="offset" />
          </mxGeometry>
        </mxCell>
        <mxCell id="F_iJesHC6Tssq89JvIhv-5" value="跳转类型" style="rhombus;whiteSpace=wrap;html=1;fontColor=default;strokeColor=default;fillColor=default;" vertex="1" parent="1">
          <mxGeometry x="645" y="340" width="80" height="80" as="geometry" />
        </mxCell>
        <mxCell id="F_iJesHC6Tssq89JvIhv-16" value="" style="edgeStyle=orthogonalEdgeStyle;rounded=0;orthogonalLoop=1;jettySize=auto;html=1;labelBackgroundColor=default;fontColor=default;strokeColor=default;" edge="1" parent="1" source="F_iJesHC6Tssq89JvIhv-7" target="F_iJesHC6Tssq89JvIhv-15">
          <mxGeometry relative="1" as="geometry" />
        </mxCell>
        <mxCell id="F_iJesHC6Tssq89JvIhv-7" value="触发 window上的hashchange 事件" style="rounded=0;whiteSpace=wrap;html=1;strokeColor=#d79b00;fillColor=#ffe6cc;fontColor=default;" vertex="1" parent="1">
          <mxGeometry x="615" y="490" width="140" height="40" as="geometry" />
        </mxCell>
        <mxCell id="F_iJesHC6Tssq89JvIhv-18" style="edgeStyle=orthogonalEdgeStyle;rounded=0;orthogonalLoop=1;jettySize=auto;html=1;exitX=0.5;exitY=1;exitDx=0;exitDy=0;entryX=1;entryY=0.5;entryDx=0;entryDy=0;labelBackgroundColor=default;fontColor=default;strokeColor=default;" edge="1" parent="1" source="F_iJesHC6Tssq89JvIhv-12" target="F_iJesHC6Tssq89JvIhv-15">
          <mxGeometry relative="1" as="geometry" />
        </mxCell>
        <mxCell id="F_iJesHC6Tssq89JvIhv-12" value="触发 window上的onload 事件" style="rounded=0;whiteSpace=wrap;html=1;fontColor=default;strokeColor=default;fillColor=default;" vertex="1" parent="1">
          <mxGeometry x="790" y="490" width="140" height="40" as="geometry" />
        </mxCell>
        <mxCell id="F_iJesHC6Tssq89JvIhv-20" value="" style="edgeStyle=orthogonalEdgeStyle;rounded=0;orthogonalLoop=1;jettySize=auto;html=1;labelBackgroundColor=default;fontColor=default;strokeColor=default;" edge="1" parent="1" source="F_iJesHC6Tssq89JvIhv-15" target="F_iJesHC6Tssq89JvIhv-19">
          <mxGeometry relative="1" as="geometry" />
        </mxCell>
        <mxCell id="F_iJesHC6Tssq89JvIhv-15" value="解析当前的url&lt;br&gt;解析hash" style="rounded=0;whiteSpace=wrap;html=1;fontColor=default;strokeColor=default;fillColor=default;" vertex="1" parent="1">
          <mxGeometry x="615" y="630" width="140" height="40" as="geometry" />
        </mxCell>
        <mxCell id="F_iJesHC6Tssq89JvIhv-24" value="是" style="edgeStyle=orthogonalEdgeStyle;rounded=0;orthogonalLoop=1;jettySize=auto;html=1;exitX=0;exitY=0.5;exitDx=0;exitDy=0;entryX=0.5;entryY=0;entryDx=0;entryDy=0;labelBackgroundColor=default;fontColor=default;strokeColor=default;" edge="1" parent="1" source="F_iJesHC6Tssq89JvIhv-19" target="F_iJesHC6Tssq89JvIhv-21">
          <mxGeometry relative="1" as="geometry" />
        </mxCell>
        <mxCell id="F_iJesHC6Tssq89JvIhv-25" style="edgeStyle=orthogonalEdgeStyle;rounded=0;orthogonalLoop=1;jettySize=auto;html=1;exitX=1;exitY=0.5;exitDx=0;exitDy=0;entryX=0.5;entryY=0;entryDx=0;entryDy=0;labelBackgroundColor=default;fontColor=default;strokeColor=default;" edge="1" parent="1" source="F_iJesHC6Tssq89JvIhv-19" target="F_iJesHC6Tssq89JvIhv-22">
          <mxGeometry relative="1" as="geometry" />
        </mxCell>
        <mxCell id="F_iJesHC6Tssq89JvIhv-27" value="否" style="edgeLabel;html=1;align=center;verticalAlign=middle;resizable=0;points=[];fontColor=default;labelBackgroundColor=default;" vertex="1" connectable="0" parent="F_iJesHC6Tssq89JvIhv-25">
          <mxGeometry x="0.0769" y="3" relative="1" as="geometry">
            <mxPoint x="-3" y="-4" as="offset" />
          </mxGeometry>
        </mxCell>
        <mxCell id="F_iJesHC6Tssq89JvIhv-19" value="匹配成功" style="rhombus;whiteSpace=wrap;html=1;fontColor=default;strokeColor=default;fillColor=default;" vertex="1" parent="1">
          <mxGeometry x="645" y="730" width="80" height="80" as="geometry" />
        </mxCell>
        <mxCell id="F_iJesHC6Tssq89JvIhv-21" value="根据不同规则，展示页面" style="rounded=0;whiteSpace=wrap;html=1;fontColor=default;strokeColor=default;fillColor=default;" vertex="1" parent="1">
          <mxGeometry x="475" y="890" width="140" height="40" as="geometry" />
        </mxCell>
        <mxCell id="F_iJesHC6Tssq89JvIhv-22" value="做错误处理&lt;br&gt;重定向或者提示路径不存在" style="rounded=0;whiteSpace=wrap;html=1;fontColor=default;strokeColor=default;fillColor=default;" vertex="1" parent="1">
          <mxGeometry x="755" y="890" width="155" height="40" as="geometry" />
        </mxCell>
        <mxCell id="F_iJesHC6Tssq89JvIhv-29" value="" style="shape=curlyBracket;whiteSpace=wrap;html=1;rounded=1;labelBackgroundColor=default;fontColor=default;strokeColor=default;fillColor=default;" vertex="1" parent="1">
          <mxGeometry x="520" y="180" width="20" height="340" as="geometry" />
        </mxCell>
        <mxCell id="F_iJesHC6Tssq89JvIhv-30" value="这块逻辑，就是基于hash的变化&lt;br&gt;浏览器不会向服务器发起请求，才会有的&lt;br&gt;" style="text;html=1;align=center;verticalAlign=middle;resizable=0;points=[];autosize=1;strokeColor=#d79b00;fillColor=#ffe6cc;fontColor=default;" vertex="1" parent="1">
          <mxGeometry x="280" y="335" width="230" height="30" as="geometry" />
        </mxCell>
      </root>
    </mxGraphModel>
  </diagram>
</mxfile>
